<svg xmlns="http://www.w3.org/2000/svg" width="336" height="405" viewBox="0 0 336 405" version="1.1"><path d="M 255 151.400 C 255 151.620, 256.560 153.360, 258.467 155.267 C 260.373 157.173, 262.109 158.557, 262.324 158.343 C 262.539 158.128, 263.342 158.750, 264.107 159.726 C 265.357 161.318, 265.330 161.367, 263.839 160.201 C 262.477 159.137, 262.043 159.137, 261.429 160.201 C 261.017 160.916, 261.048 161.166, 261.498 160.759 C 261.948 160.351, 262.807 160.419, 263.408 160.911 C 264.009 161.402, 266.441 162.323, 268.813 162.958 C 271.184 163.592, 273.824 164.379, 274.679 164.707 C 276.025 165.223, 276.062 164.982, 274.954 162.902 C 274.251 161.581, 272.323 158.813, 270.670 156.750 C 268.281 153.768, 266.983 153, 264.333 153 C 262.500 153, 261 152.550, 261 152 C 261 151.450, 259.650 151, 258 151 C 256.350 151, 255 151.180, 255 151.400 M 242.001 154.358 C 242 154.831, 240.875 154.934, 239.500 154.589 C 237.925 154.194, 237 154.385, 237 155.106 C 237 155.844, 235.935 156.037, 234 155.650 C 232.308 155.312, 231 155.475, 231 156.025 C 231 156.561, 227.738 157.052, 223.750 157.116 C 219.762 157.180, 217.287 157.438, 218.250 157.689 C 219.213 157.941, 220 158.508, 220 158.950 C 220 159.393, 222.025 159.526, 224.500 159.247 C 227.595 158.898, 229 159.111, 229 159.929 C 229 160.583, 229.438 160.847, 229.973 160.516 C 230.509 160.186, 236.271 159.903, 242.779 159.890 C 249.287 159.876, 255.936 160.150, 257.555 160.500 C 260.208 161.073, 260.328 160.996, 258.766 159.719 C 257.812 158.940, 257.362 157.937, 257.766 157.491 C 258.169 157.045, 257.954 156.993, 257.286 157.376 C 256.619 157.759, 255.194 157.194, 254.120 156.120 C 253.046 155.046, 251.904 154.429, 251.583 154.750 C 251.263 155.071, 251 154.879, 251 154.324 C 251 153.769, 248.975 153.357, 246.501 153.408 C 244.026 153.458, 242.001 153.886, 242.001 154.358 M 274.559 156.468 C 275.626 157.276, 276.076 157.951, 275.559 157.968 C 275.041 157.986, 275.309 158.563, 276.154 159.250 C 277 159.938, 278.308 162.075, 279.062 164 C 279.816 165.925, 281.348 168.273, 282.466 169.217 C 283.585 170.161, 285.876 170.948, 287.559 170.967 C 289.241 170.985, 291.491 170.322, 292.559 169.493 C 294.429 168.040, 294.328 167.826, 289.802 163.627 C 287.218 161.230, 283.060 158.308, 280.563 157.134 C 278.065 155.961, 275.256 155, 274.320 155 C 272.826 155, 272.855 155.179, 274.559 156.468 M 224.355 163.235 C 224.062 163.708, 223.075 164.005, 222.161 163.894 C 221.248 163.783, 219.825 163.960, 219 164.288 C 218.175 164.615, 216.600 165.082, 215.500 165.325 C 214.400 165.569, 215.075 165.790, 217 165.817 C 218.925 165.843, 225.900 165.027, 232.500 164.003 L 244.500 162.140 234.693 162.257 C 229.300 162.322, 224.647 162.762, 224.355 163.235 M 233.698 169.482 C 227.153 170.840, 226.609 171.188, 219.318 178.697 C 215.150 182.988, 211.315 186.376, 210.796 186.225 C 210.276 186.074, 210.113 186.373, 210.432 186.890 C 210.751 187.406, 210.447 188.062, 209.756 188.347 C 208.989 188.664, 209.377 189.132, 210.750 189.549 C 211.988 189.925, 213 190.568, 213 190.978 C 213 191.388, 214.125 191.508, 215.500 191.245 C 216.875 190.982, 218 191.227, 218 191.790 C 218 192.352, 218.900 192.577, 220 192.290 C 221.100 192.002, 222 192.207, 222 192.745 C 222 193.283, 223.125 193.508, 224.500 193.245 C 225.875 192.982, 227 193.227, 227 193.790 C 227 194.352, 227.900 194.577, 229 194.290 C 230.133 193.993, 231 194.259, 231 194.902 C 231 195.614, 231.933 195.804, 233.500 195.411 C 234.879 195.064, 236 195.218, 236 195.753 C 236 196.286, 237.125 196.508, 238.500 196.245 C 240.333 195.894, 241 196.198, 241 197.383 C 241 198.697, 242.152 199, 247.145 199 C 252.097 199, 254.681 198.331, 260.457 195.553 C 264.398 193.657, 269.587 190.363, 271.987 188.233 L 276.351 184.361 272.926 184.719 C 269.718 185.054, 269.191 184.655, 264.633 178.438 C 261.385 174.008, 258.558 171.293, 256.133 170.273 C 254.135 169.433, 249.800 168.594, 246.500 168.408 C 243.200 168.222, 237.439 168.705, 233.698 169.482" stroke="none" fill="#172efa" fill-rule="evenodd"/><path d="M 116.756 295.796 C 111.947 298.933, 108.009 301.979, 108.006 302.565 C 108.003 303.151, 101.250 312.107, 93 322.467 C 84.750 332.827, 78 341.473, 78 341.680 C 78 341.888, 79.388 344.807, 81.085 348.169 L 84.170 354.280 99.039 331.640 C 107.217 319.188, 114.180 309, 114.513 309 C 114.846 309, 114.928 309.337, 114.696 309.750 C 114.464 310.163, 108.440 320.400, 101.310 332.500 C 94.180 344.600, 83.827 362.825, 78.305 373 C 72.783 383.175, 67.274 393.454, 66.064 395.843 L 63.864 400.186 79.682 389.447 C 88.382 383.540, 96.246 377.985, 97.158 377.103 C 98.070 376.222, 103.163 364.700, 108.475 351.500 C 113.786 338.300, 119.998 322.836, 122.278 317.135 C 124.558 311.434, 126.585 307.255, 126.782 307.847 C 126.980 308.439, 122.562 320.754, 116.965 335.212 C 111.368 349.670, 105.534 364.762, 104.001 368.750 C 102.468 372.738, 101.422 376, 101.676 376 C 101.931 376, 105.595 374.588, 109.820 372.862 C 114.044 371.137, 118.008 369.224, 118.628 368.612 C 119.248 368.001, 123.904 353.550, 128.973 336.500 C 134.043 319.450, 138.590 305.080, 139.078 304.567 C 139.566 304.055, 139.509 305.180, 138.952 307.067 C 138.394 308.955, 134.331 323.042, 129.923 338.370 C 125.514 353.699, 122.097 366.430, 122.329 366.662 C 122.560 366.894, 125.280 366.052, 128.374 364.792 L 133.997 362.500 133.999 357.611 L 134 352.721 139 353.314 C 141.750 353.639, 144.001 353.589, 144.002 353.203 C 144.003 352.816, 146.266 340.401, 149.033 325.614 C 151.799 310.827, 153.935 298.626, 153.781 298.501 C 153.626 298.376, 147.874 296.412, 140.999 294.137 C 134.123 291.861, 127.823 290.021, 126.999 290.046 C 126.174 290.071, 121.565 292.659, 116.756 295.796" stroke="none" fill="#507f80" fill-rule="evenodd"/><path d="M 137.959 241.965 C 136.607 243.729, 135.050 245.696, 134.500 246.336 C 133.950 246.976, 131.258 250.875, 128.518 255 C 125.778 259.125, 123.078 263.251, 122.518 264.168 C 121.958 265.086, 120.784 267.111, 119.909 268.668 C 119.033 270.226, 115.096 277.829, 111.159 285.564 C 107.221 293.299, 104 299.895, 104 300.222 C 104 300.548, 108.746 298.382, 114.546 295.408 C 120.347 292.433, 125.698 290, 126.439 290 C 127.180 290, 128.059 289.288, 128.393 288.418 C 128.727 287.548, 129 285.242, 129 283.294 C 129 281.345, 130.599 274.519, 132.554 268.125 C 134.509 261.731, 136.584 255.150, 137.167 253.500 C 137.749 251.850, 138.852 248.256, 139.618 245.514 C 140.383 242.772, 140.876 240.129, 140.714 239.642 C 140.552 239.155, 139.312 240.200, 137.959 241.965" stroke="none" fill="#7f82bb" fill-rule="evenodd"/><path d="M 271.212 170.188 C 270.546 170.854, 270 171.930, 270 172.578 C 270 173.225, 270.698 174.334, 271.550 175.042 C 272.831 176.105, 273.392 176.036, 274.783 174.645 C 276.053 173.376, 276.207 172.552, 275.412 171.291 C 274.832 170.371, 273.922 169.474, 273.391 169.297 C 272.860 169.120, 271.879 169.521, 271.212 170.188 M 271.336 171.567 C 271.005 172.429, 271.244 173.644, 271.867 174.267 C 272.711 175.111, 273.289 175.111, 274.133 174.267 C 274.756 173.644, 274.995 172.429, 274.664 171.567 C 274.333 170.705, 273.585 170, 273 170 C 272.415 170, 271.667 170.705, 271.336 171.567" stroke="none" fill="#e09256" fill-rule="evenodd"/><path d="M 254.027 152.656 C 255.387 153.567, 257.625 155.229, 259 156.349 C 260.375 157.469, 259.843 156.723, 257.817 154.692 C 255.791 152.662, 253.553 151, 252.844 151 C 252.135 151, 252.668 151.745, 254.027 152.656 M 264.125 152.721 C 266.856 153.011, 268.481 154.018, 270.713 156.803 C 272.342 158.836, 274.214 161.512, 274.873 162.750 C 275.531 163.988, 275.942 164.995, 275.785 164.989 C 275.628 164.983, 273.288 164.307, 270.585 163.487 C 267.882 162.667, 265.454 162.213, 265.190 162.477 C 264.926 162.741, 262.637 161.463, 260.105 159.638 C 257.572 157.812, 254.825 156.001, 254 155.613 C 253.175 155.225, 253.400 155.584, 254.500 156.410 C 255.600 157.237, 257.400 158.638, 258.500 159.525 C 260.430 161.080, 260.396 161.114, 257.555 160.500 C 255.936 160.150, 249.308 159.876, 242.826 159.889 C 235.177 159.906, 230.174 160.368, 228.571 161.207 C 226.408 162.340, 227.243 162.476, 235.301 162.303 L 244.500 162.106 232.500 163.985 C 225.900 165.019, 218.925 165.842, 217 165.814 L 213.500 165.763 216.500 164.970 C 219.202 164.256, 219.053 164.180, 215 164.201 C 212.525 164.214, 208.569 163.513, 206.210 162.643 C 203.850 161.772, 202.171 161.468, 202.479 161.965 C 202.786 162.463, 205.521 163.800, 208.557 164.935 C 212.013 166.228, 216.583 167.022, 220.788 167.059 C 226.373 167.108, 227.186 167.318, 225.631 168.309 C 224.604 168.964, 222.804 170.325, 221.631 171.334 C 219.620 173.064, 219.612 173.127, 221.500 172.444 C 222.600 172.045, 227.775 170.849, 233 169.784 C 238.624 168.638, 244.566 168.046, 247.563 168.333 C 250.348 168.599, 254.233 169.488, 256.196 170.309 C 258.558 171.296, 261.414 174.047, 264.633 178.438 C 269.191 184.655, 269.718 185.054, 272.926 184.719 L 276.351 184.361 271.987 188.233 C 269.587 190.363, 264.282 193.713, 260.198 195.677 C 253.241 199.023, 252.324 199.214, 245.637 198.698 C 241.712 198.395, 231.300 196.983, 222.500 195.559 C 213.700 194.136, 204.219 192.314, 201.432 191.511 C 198.644 190.707, 195.313 189.139, 194.029 188.025 C 192.745 186.911, 191.367 186, 190.966 186 C 190.566 186, 182.423 194.012, 172.869 203.805 C 163.316 213.598, 152.423 225.055, 148.662 229.266 C 142.762 235.873, 141.579 237.853, 140.033 243.711 C 139.047 247.445, 137.761 251.850, 137.174 253.500 C 136.588 255.150, 134.553 261.675, 132.652 268 C 130.751 274.325, 128.995 281.848, 128.748 284.717 L 128.300 289.934 140.497 293.999 L 152.693 298.063 164.285 295.608 C 170.660 294.258, 180.742 291.492, 186.688 289.461 C 192.635 287.430, 200.650 284.186, 204.500 282.253 C 208.350 280.319, 213.466 277.387, 215.869 275.738 C 218.272 274.089, 223.405 269.761, 227.277 266.120 C 231.148 262.479, 236.045 257.322, 238.158 254.660 L 242 249.820 242 239.122 C 242 230.013, 241.666 227.763, 239.750 223.974 C 238.236 220.979, 235.972 218.588, 232.828 216.666 C 229.474 214.615, 226.088 213.571, 220.828 212.966 L 213.500 212.124 221 212.404 C 226.186 212.597, 229.734 213.322, 232.500 214.750 C 234.700 215.887, 237.709 218.096, 239.186 219.658 C 240.664 221.221, 242.406 223.850, 243.058 225.500 C 243.710 227.150, 244.527 232.325, 244.872 237 L 245.500 245.500 251.109 237 C 254.194 232.325, 258.919 224.268, 261.609 219.096 C 265.477 211.660, 267.901 208.421, 273.197 203.615 C 276.881 200.273, 282.731 195.824, 286.196 193.728 C 291.842 190.315, 293.018 189.971, 297.499 190.426 C 300.249 190.706, 308.575 191.465, 316 192.113 C 324.785 192.879, 330.331 193.834, 331.879 194.845 L 334.258 196.399 332.481 192.949 C 331.503 191.052, 329.611 188.062, 328.275 186.305 C 326.939 184.548, 323.687 181.724, 321.048 180.031 C 318.408 178.337, 312.534 175.595, 307.994 173.939 C 303.455 172.282, 299.537 171.129, 299.289 171.377 C 299.041 171.626, 299.330 172.748, 299.932 173.872 C 300.831 175.553, 300.674 176.104, 299.049 176.974 C 297.961 177.556, 293.131 179.078, 288.314 180.357 L 279.556 182.682 293.028 183.262 C 303.643 183.719, 308.241 184.395, 314.710 186.452 C 319.226 187.887, 323.217 189.543, 323.581 190.131 C 324.012 190.828, 323.494 190.800, 322.092 190.049 C 320.910 189.416, 316.018 188.051, 311.221 187.015 C 306.424 185.978, 297.550 184.819, 291.500 184.439 C 285.450 184.059, 279.898 183.427, 279.163 183.036 C 278.364 182.610, 281.889 181.035, 287.913 179.125 C 297.206 176.179, 298 175.728, 298 173.390 C 298 171.670, 296.176 168.939, 292.346 164.924 C 289.161 161.584, 284.467 157.941, 281.596 156.578 C 278.793 155.248, 275.375 153.848, 274 153.468 C 272.479 153.046, 271.891 153.131, 272.500 153.683 C 273.050 154.183, 275.300 155.197, 277.500 155.937 C 279.700 156.678, 283.300 158.522, 285.500 160.035 C 287.700 161.549, 290.625 163.997, 292 165.474 C 294.446 168.103, 294.458 168.192, 292.559 169.581 C 291.491 170.361, 289.241 170.985, 287.559 170.967 C 285.876 170.948, 283.585 170.161, 282.466 169.217 C 281.348 168.273, 279.813 165.925, 279.056 164 C 278.299 162.075, 277.251 160.050, 276.727 159.500 C 276.120 158.862, 276.038 159.406, 276.500 161 C 276.957 162.577, 276.877 163.131, 276.283 162.500 C 275.765 161.950, 273.636 159.363, 271.550 156.750 C 268.192 152.543, 267.344 152.019, 264.130 152.168 L 260.500 152.336 264.125 152.721 M 212.868 156.620 C 213.855 157.311, 215.976 158.137, 217.581 158.454 C 219.913 158.915, 220.097 158.841, 218.500 158.086 C 217.018 157.386, 218.444 157.092, 224 156.954 C 228.125 156.852, 230.825 156.621, 230 156.442 C 229.175 156.263, 224.579 155.947, 219.786 155.739 C 212.575 155.427, 211.382 155.579, 212.868 156.620 M 267.950 169.560 C 267.027 170.672, 266.926 171.891, 267.596 173.810 C 268.352 175.973, 269.255 176.560, 272.203 176.806 C 275.102 177.049, 276.107 176.669, 277.006 174.989 C 277.903 173.312, 277.807 172.355, 276.548 170.433 C 275.476 168.796, 274.020 168, 272.099 168 C 270.529 168, 268.662 168.702, 267.950 169.560 M 271.336 171.567 C 271.005 172.429, 271.244 173.644, 271.867 174.267 C 272.711 175.111, 273.289 175.111, 274.133 174.267 C 274.756 173.644, 274.995 172.429, 274.664 171.567 C 274.333 170.705, 273.585 170, 273 170 C 272.415 170, 271.667 170.705, 271.336 171.567 M 211.681 185.410 C 207.092 189.524, 206.972 189.760, 209.181 190.352 C 210.456 190.693, 211.950 190.950, 212.500 190.923 C 213.050 190.896, 212.489 190.467, 211.253 189.970 C 209.063 189.090, 209.114 188.965, 213.253 185.058 C 215.589 182.854, 217.275 181.059, 217 181.070 C 216.725 181.081, 214.331 183.034, 211.681 185.410" stroke="none" fill="#333434" fill-rule="evenodd"/><path d="M 10.718 6.750 C 10.499 7.162, 10.400 9.075, 10.500 11 C 10.600 12.925, 11.667 18.785, 12.871 24.021 C 14.075 29.258, 15.839 34.731, 16.792 36.183 C 17.744 37.635, 24.593 43.857, 32.012 50.010 C 39.430 56.163, 49.325 64.487, 54 68.507 C 58.675 72.527, 64.300 77.512, 66.500 79.586 C 68.700 81.659, 72.901 85.337, 75.836 87.759 C 78.770 90.181, 81.412 91.921, 81.707 91.626 C 82.002 91.331, 81.712 88.032, 81.063 84.295 C 80.414 80.558, 79.677 76.493, 79.425 75.261 C 79.171 74.017, 64.053 58.140, 45.385 39.511 C 26.915 21.080, 11.649 6, 11.461 6 C 11.272 6, 10.938 6.338, 10.718 6.750 M 3 34.340 C 3 35.077, 3.876 39.104, 4.946 43.289 C 6.016 47.473, 8.425 54.216, 10.299 58.272 L 13.707 65.647 45.103 86.460 C 62.372 97.908, 77.436 107.889, 78.581 108.641 C 80.481 109.890, 80.352 109.112, 77.081 99.645 L 73.500 89.283 41.500 63.516 C 23.900 49.345, 8.350 36.681, 6.945 35.375 C 5.540 34.069, 4.078 33, 3.695 33 C 3.313 33, 3 33.603, 3 34.340 M 3.450 69.132 C 3.813 70.434, 5.287 74.425, 6.726 78 C 8.164 81.575, 11.246 87.484, 13.574 91.131 C 15.901 94.778, 18.412 98.144, 19.153 98.612 C 19.894 99.079, 31.300 104.356, 44.500 110.338 C 57.700 116.320, 71.328 122.504, 74.783 124.081 L 81.067 126.946 75.803 117.094 L 70.539 107.242 37.562 87.371 C 19.425 76.442, 4.181 67.334, 3.688 67.132 C 3.194 66.929, 3.087 67.829, 3.450 69.132 M 82.386 79.750 C 82.727 81.263, 83.239 84.459, 83.523 86.854 C 83.808 89.249, 84.552 92.174, 85.176 93.354 C 85.801 94.534, 87.420 96.963, 88.775 98.750 C 90.129 100.537, 91.697 102, 92.258 102 C 92.820 102, 93.779 102.618, 94.390 103.374 C 95 104.130, 99.184 107.955, 103.687 111.874 C 108.191 115.793, 112.353 119, 112.937 119 C 113.522 119, 114 119.450, 114 120 C 114 120.550, 113.789 121, 113.531 121 C 113.273 121, 105.217 114.734, 95.629 107.075 L 78.195 93.149 81.657 103.325 L 85.118 113.500 98.224 121.500 C 105.432 125.900, 112.446 130.512, 113.811 131.750 C 115.175 132.988, 116.025 134, 115.698 134 C 115.371 134, 108.893 130.265, 101.302 125.699 C 93.711 121.134, 84.830 115.879, 81.567 114.021 L 75.633 110.643 80.567 119.848 L 85.500 129.054 101.271 135.848 C 109.945 139.584, 117.595 143.239, 118.271 143.968 C 119.256 145.031, 119.203 145.186, 118 144.749 C 117.175 144.449, 108.455 141.008, 98.621 137.102 C 88.788 133.196, 80.326 130, 79.816 130 C 79.307 130, 80.738 132.588, 82.996 135.750 C 85.254 138.912, 87.885 142.400, 88.843 143.500 C 90.064 144.901, 95.289 146.670, 106.293 149.408 C 114.932 151.557, 122 153.725, 122 154.225 C 122 154.725, 121.213 154.893, 120.250 154.598 C 119.287 154.303, 110.922 152.472, 101.659 150.531 C 92.397 148.589, 84.535 147, 84.188 147 C 83.842 147, 86.403 149.871, 89.881 153.380 L 96.204 159.760 110.624 161.011 C 118.555 161.699, 125.242 162.583, 125.485 162.976 C 125.728 163.369, 120.206 163.525, 113.213 163.324 C 106.221 163.123, 98.143 162.818, 95.262 162.648 L 90.024 162.337 96.762 167.241 L 103.500 172.145 111.500 171.539 C 115.900 171.205, 121.525 170.670, 124 170.349 C 126.956 169.966, 128.157 170.104, 127.500 170.750 C 126.950 171.291, 121.775 172.276, 116 172.939 C 110.225 173.602, 103.957 174.461, 102.071 174.849 L 98.642 175.553 104.701 179.162 L 110.761 182.772 121.015 180.354 C 126.655 179.024, 131.498 178.165, 131.778 178.444 C 132.057 178.724, 131.659 179.158, 130.893 179.408 C 130.127 179.658, 127.025 180.535, 124 181.356 C 120.975 182.177, 116.496 183.375, 114.048 184.018 L 109.595 185.186 112.048 187.139 C 113.396 188.214, 115.425 189.741, 116.555 190.534 C 118.398 191.826, 119.424 191.662, 126.455 188.954 C 130.770 187.293, 134.795 186.120, 135.400 186.348 C 136.005 186.575, 135.375 187.233, 134 187.809 C 132.625 188.385, 127.797 190.372, 123.271 192.225 L 115.043 195.593 120.284 198.429 L 125.526 201.264 132.865 197.568 C 136.902 195.535, 140.459 194.126, 140.769 194.436 C 141.079 194.746, 141.146 195.154, 140.917 195.342 C 140.688 195.530, 136.338 197.887, 131.250 200.579 C 126.163 203.271, 122 205.740, 122 206.066 C 122 206.392, 124.240 207.707, 126.979 208.990 L 131.957 211.322 139.054 206.603 C 142.957 204.007, 146.603 202.034, 147.156 202.219 C 147.708 202.403, 143.981 205.445, 138.874 208.978 L 129.587 215.403 134.544 217.608 C 138.464 219.352, 139.853 219.571, 141.188 218.656 C 142.117 218.020, 145.391 215.524, 148.464 213.109 C 151.537 210.694, 154.226 208.894, 154.440 209.109 C 154.654 209.324, 151.478 212.412, 147.382 215.971 L 139.936 222.443 142.218 224.205 C 143.473 225.174, 145.302 226.234, 146.282 226.561 C 147.550 226.984, 150.288 225.135, 155.782 220.147 C 160.027 216.292, 169.512 207.089, 176.860 199.696 L 190.220 186.253 184.790 182.648 C 181.803 180.666, 176.626 176.198, 173.285 172.719 C 169.945 169.240, 164.694 162.532, 161.618 157.812 C 158.541 153.092, 154.719 146.471, 153.124 143.098 C 151.529 139.726, 148.286 134.837, 145.917 132.234 C 143.547 129.630, 133.722 119.250, 124.082 109.166 C 114.443 99.083, 106.395 91.316, 106.197 91.908 C 106 92.499, 106.374 94.674, 107.029 96.741 C 107.683 98.809, 109.567 102.300, 111.215 104.500 C 112.863 106.700, 110.451 104.666, 105.856 99.980 C 101.260 95.293, 94.470 88.206, 90.768 84.230 C 87.065 80.253, 83.525 77, 82.901 77 C 82.180 77, 81.993 78.002, 82.386 79.750 M 8 101.848 C 8 102.115, 9.623 105.296, 11.606 108.917 C 13.589 112.538, 17.658 118.537, 20.649 122.250 C 23.639 125.963, 26.404 129.005, 26.793 129.010 C 27.182 129.016, 40.436 132.348, 56.247 136.416 C 72.312 140.549, 84.664 143.275, 84.247 142.596 C 83.836 141.927, 81.268 138.229, 78.541 134.376 L 73.581 127.373 40.791 114.367 C 22.756 107.215, 8 101.581, 8 101.848 M 23.110 137.206 C 23.760 138.419, 27.713 142.828, 31.895 147.003 L 39.500 154.594 64.894 156.819 C 78.861 158.043, 90.437 158.897, 90.617 158.716 C 90.798 158.536, 88.086 155.554, 84.592 152.091 L 78.238 145.794 51.369 140.430 C 36.591 137.480, 23.922 135.052, 23.215 135.033 C 22.199 135.007, 22.177 135.463, 23.110 137.206 M 43.042 166.590 C 45.494 169.114, 49.420 172.516, 51.766 174.149 L 56.033 177.119 77.761 174.800 L 99.489 172.481 92.051 167.240 L 84.613 162 61.598 162 L 38.584 162 43.042 166.590 M 90.500 176.496 C 89.950 176.681, 81.429 178.070, 71.565 179.581 L 53.631 182.328 56.991 185.133 C 58.839 186.676, 62.634 189.127, 65.425 190.580 L 70.500 193.221 88.500 188.509 C 98.400 185.917, 106.599 183.706, 106.721 183.594 C 106.842 183.483, 104.049 181.729, 100.515 179.696 C 96.980 177.663, 93.506 176.036, 92.794 176.079 C 92.082 176.122, 91.050 176.310, 90.500 176.496 M 89 191.878 L 74.500 196.611 74.728 201.158 C 74.853 203.659, 75.303 206.614, 75.728 207.724 C 76.462 209.644, 77.295 209.404, 92.500 202.895 C 101.300 199.129, 110.009 195.346, 111.854 194.490 L 115.208 192.933 111.113 189.967 C 108.860 188.335, 106.226 187.033, 105.259 187.072 C 104.291 187.112, 96.975 189.275, 89 191.878 M 95.252 205.808 L 80.003 213.511 83.479 218.399 C 85.390 221.088, 87.162 223.495, 87.416 223.749 C 87.670 224.003, 93.193 220.925, 99.689 216.908 C 106.185 212.891, 113.940 208.055, 116.923 206.161 L 122.346 202.717 117.923 200.404 C 115.490 199.131, 112.825 198.094, 112 198.098 C 111.175 198.102, 103.638 201.572, 95.252 205.808 M 104.199 218.507 L 90.897 227.911 96.385 231.555 L 101.872 235.198 115.514 224.097 L 129.156 212.996 124.495 210.998 C 121.932 209.899, 119.309 209.023, 118.667 209.051 C 118.025 209.079, 111.514 213.334, 104.199 218.507 M 115.864 227.977 C 105.314 237.772, 105.250 237.860, 107.864 238.874 C 109.314 239.436, 112.294 240.363, 114.488 240.933 L 118.475 241.970 127.488 232.336 C 132.444 227.037, 136.625 222.394, 136.778 222.018 C 136.931 221.641, 135.196 220.776, 132.924 220.095 C 130.651 219.414, 128.276 218.687, 127.646 218.480 C 127.016 218.272, 121.714 222.546, 115.864 227.977 M 129.255 234.250 L 121.212 243.500 125.897 243.795 C 128.474 243.957, 131.514 243.732, 132.652 243.295 C 133.790 242.858, 137.215 239.586, 140.263 236.025 L 145.805 229.549 141.801 227.275 C 139.598 226.024, 137.684 225, 137.547 225 C 137.411 225, 133.679 229.162, 129.255 234.250" stroke="none" fill="#747c80" fill-rule="evenodd"/></svg>